PathFileType	4	(x/y/z)	S02_PSF_T01
DataRate	CameraRate	NumFrames	NumMarkers	Units	OrigDataRate	OrigDataStartFrame	OrigNumFrames
240	240	4	51	mm	240	200	398
Frame#	Time	Sternum			R.Acromium			L.Acromium			Top.Head			R.ASIS			L.ASIS			R.PSIS			L.PSIS			R.Great.Tro			L.Great.Tro			R.Iliac.Crest			L.Iliac.Crest			V.Sacral			R.Thigh.Upper.Post			R.Thigh.Lower.Ant			R.Thigh.Lower.Post			R.Thigh.Upper.Ant			R.Knee.Lat			R.Knee.Med			R.Shank.Upper.Post			R.Shank.Lower.Ant			R.Shank.Lower.Post			R.Shank.Upper.Ant			R.Ankle.Lat			R.Ankle.Med			R.Heel.Upper			R.Heel.Med			R.Heel.Lat			R.Toe.Lat			R.Toe.Med			R.Toe.Tip			L.Thigh.Upper.Post			L.Thigh.Lower.Ant			L.Thigh.Lower.Post			L.Thigh.Upper.Ant			L.Knee.Lat			L.Knee.Med			L.Shank.Upper.Post			L.Shank.Lower.Ant			L.Shank.Lower.Post			L.Shank.Upper.Ant			L.Ankle.Lat			L.Ankle.Med			L.Heel.Upper			L.Heel.Med			L.Heel.Lat			L.Toe.Lat			L.Toe.Med			L.Toe.Tip			Cervical.Spine			Back			
		X1	Y1	Z1	X2	Y2	Z2	X3	Y3	Z3	X4	Y4	Z4	X5	Y5	Z5	X6	Y6	Z6	X7	Y7	Z7	X8	Y8	Z8	X9	Y9	Z9	X10	Y10	Z10	X11	Y11	Z11	X12	Y12	Z12	X13	Y13	Z13	X14	Y14	Z14	X15	Y15	Z15	X16	Y16	Z16	X17	Y17	Z17	X18	Y18	Z18	X19	Y19	Z19	X20	Y20	Z20	X21	Y21	Z21	X22	Y22	Z22	X23	Y23	Z23	X24	Y24	Z24	X25	Y25	Z25	X26	Y26	Z26	X27	Y27	Z27	X28	Y28	Z28	X29	Y29	Z29	X30	Y30	Z30	X31	Y31	Z31	X32	Y32	Z32	X33	Y33	Z33	X34	Y34	Z34	X35	Y35	Z35	X36	Y36	Z36	X37	Y37	Z37	X38	Y38	Z38	X39	Y39	Z39	X40	Y40	Z40	X41	Y41	Z41	X42	Y42	Z42	X43	Y43	Z43	X44	Y44	Z44	X45	Y45	Z45	X46	Y46	Z46	X47	Y47	Z47	X48	Y48	Z48	X49	Y49	Z49	X50	Y50	Z50	X51	Y51	Z51	

200	0.82917	-387.14	1114.9	321.29	-488.22	1342.7	477.95	-507.14	1354.7	186.72	-471	1635.5	349.46	-410.6	951.02	427.48	-408.82	946	219.72	-622.14	975.86	379.71	-627.99	980.45	306.06	-472.57	804.45	513.97	-516.44	828.85	133.63	-512.52	983.85	490.77	-534.84	986.25	158.66	-651.5	932.05	337.41	-474.79	612.12	481.23	-423.67	536.86	434.82	-492.83	526.86	456.99	-409.64	622.22	458.98	-477.59	450.6	433.41	-498.01	447.9	291.05	-579.24	253.27	414.07	-516.58	166.61	384.04	-581.41	180.8	399.96	-509.59	233.94	404.4	-576.12	90.919	380.24	-574.26	107.66	299.72	-644.04	76.669	329.38	-633.35	44.272	300.61	-638.49	45.857	364.96	-474.37	40.208	394.73	-450.11	33.568	285.89	-397.08	60.145	337.51	-452.31	614.64	139.67	-351.59	572.06	124.65	-413.28	533.17	154.56	-397.98	655.17	113.86	-345.28	487.64	131.65	-311.5	486.9	267.74	-477.89	356.89	165.08	-443.84	250.88	162.32	-501.41	288.93	184.24	-424.75	323.52	146.59	-518.11	173.35	190.92	-487.27	162.5	266.58	-575.13	162.52	239.33	-568.47	136.28	272.77	-587.84	134.05	214.06	-451.47	60.582	150.06	-402.61	64.967	248.1	-353.84	56.611	188.72	-575.54	1407	343.06	-647.98	1155.2	346.09
201	0.83333	-382	1115.4	321.78	-483.11	1343.2	478.12	-502.01	1354.8	186.89	-465.79	1635.5	349.19	-406	951.13	428.1	-403.27	946.35	220.39	-617.22	975.82	378.82	-622.68	980.54	305.21	-468.62	804.32	514.07	-509.83	829.56	133.01	-508.29	983.77	490.65	-528.99	986.67	158.54	-646.43	932.14	336.37	-472.74	612.12	481.25	-422.11	536.31	435.2	-491.46	527	457.03	-407.31	621.56	459.34	-476.91	450.55	433.6	-496.84	447.83	291.09	-579.04	253.49	413.98	-516.54	166.71	384.11	-581.34	181.03	399.91	-509.41	234.01	404.5	-576.08	91.014	380.15	-574.05	107.84	299.63	-644.02	76.752	329.26	-633.28	44.33	300.57	-638.46	45.973	364.88	-474.38	40.187	394.7	-450.13	33.577	285.91	-397.05	60.13	337.55	-445.33	615.1	139.68	-344.28	572.93	125.41	-406.03	533.78	154.96	-391.02	655.8	114.11	-337.66	488.5	132.61	-304.72	488.03	268.67	-467.13	354.13	165.19	-430.17	249.12	162.31	-488.69	285.5	184.13	-413.08	322.25	146.82	-502.4	169.4	190.43	-471.28	159.21	266.18	-559.19	156.69	238.71	-551.79	130.61	272.1	-571.01	127.88	213.38	-432.33	58.637	149.5	-383.67	64.413	247.61	-334.63	57.589	188.28	-570.31	1407.1	343.13	-642.8	1155.3	346.27
202	0.8375	-376.85	1115.7	322.27	-477.98	1343.6	478.29	-496.87	1354.7	187.06	-460.58	1635.5	348.89	-401.39	951.16	428.69	-397.71	946.6	221.04	-612.31	975.71	377.91	-617.35	980.55	304.33	-464.67	804.15	514.17	-503.22	830.18	132.37	-504.06	983.62	490.51	-523.14	987	158.4	-641.35	932.15	335.31	-470.67	612.11	481.28	-420.52	535.76	435.58	-490.07	527.13	457.07	-404.97	620.9	459.68	-476.2	450.48	433.8	-495.65	447.74	291.15	-578.81	253.71	413.91	-516.5	166.8	384.16	-581.26	181.24	399.86	-509.23	234.07	404.59	-576.05	91.107	380.07	-573.86	108.02	299.55	-644.01	76.833	329.12	-633.19	44.385	300.54	-638.44	46.086	364.81	-474.39	40.164	394.67	-450.14	33.59	285.93	-397.03	60.116	337.6	-438.43	615.45	139.72	-337.08	573.66	126.22	-398.91	534.27	155.38	-384.12	656.31	114.41	-330.16	489.22	133.59	-298.08	489.01	269.64	-456.33	351.29	165.3	-416.46	247.39	162.32	-475.92	282.06	183.99	-401.4	320.96	147.05	-486.57	165.5	189.94	-455.18	155.99	265.77	-543.04	150.93	238.08	-534.91	125.05	271.43	-553.98	121.82	212.69	-413.14	56.834	148.96	-364.72	64.001	247.15	-315.45	58.703	187.86	-565.08	1407	343.2	-637.61	1155.3	346.43
203	0.84167	-371.68	1116	322.76	-472.83	1343.9	478.46	-491.71	1354.6	187.22	-455.37	1635.5	348.56	-396.77	951.1	429.26	-392.14	946.75	221.67	-607.39	975.54	376.98	-612	980.48	303.42	-460.7	803.95	514.26	-496.6	830.71	131.7	-499.84	983.4	490.37	-517.26	987.24	158.24	-636.25	932.07	334.23	-468.57	612.09	481.3	-418.92	535.21	435.96	-488.65	527.25	457.12	-402.62	620.22	460.01	-475.46	450.41	434.01	-494.46	447.62	291.23	-578.57	253.91	413.86	-516.45	166.89	384.2	-581.16	181.45	399.81	-509.02	234.12	404.68	-576.01	91.197	380	-573.72	108.19	299.48	-644	76.913	328.97	-633.1	44.437	300.5	-638.41	46.196	364.73	-474.41	40.138	394.65	-450.13	33.605	285.95	-397.01	60.104	337.65	-431.62	615.71	139.79	-330	574.24	127.06	-391.93	534.64	155.82	-377.29	656.7	114.76	-322.78	489.82	134.61	-291.6	489.83	270.66	-445.5	348.39	165.39	-402.71	245.69	162.34	-463.11	278.62	183.83	-389.72	319.65	147.3	-470.61	161.69	189.45	-438.98	152.86	265.36	-526.7	145.25	237.45	-517.86	119.62	270.77	-536.76	115.89	212.01	-393.9	55.188	148.44	-345.78	63.74	246.7	-296.31	59.963	187.46	-559.83	1406.9	343.26	-632.41	1155.2	346.58
